<svg xmlns="http://www.w3.org/2000/svg" viewBox="0 0 512 512"><defs><style>.a{fill:#2b2a30;}.b,.d,.e{fill:#fff;}.b,.c,.d{stroke:#2b2a30;}.b{stroke-miterlimit:10;}.b,.c,.d,.f{stroke-width:6px;}.c,.f{fill:none;}.c,.d,.f{stroke-linecap:round;stroke-linejoin:round;}.f{stroke:#fff;}</style></defs><title>sobaka_1</title><path class="a" d="M396.874,337.706a49.217,49.217,0,0,1-2.422-6.473l-26.158-90.679q-.011-.037-.023-.073c-9.823-27.977-42.434-47.863-72.09-47.892a1.156,1.156,0,0,0-.133.008s-66.924,1.119-76.744-.008h0c-29.674,0-62.326,19.894-72.157,47.892q-.013.036-.023.073l-11.906,41.274a.925.925,0,0,1-.045.124,143.2,143.2,0,0,0-11.277,39.095.925.925,0,0,1-.027.129l-2.9,10.062a49.238,49.238,0,0,1-2.422,6.473c-25.883,57.752-2.37,122.153,61.4,124.307q1.656.056,3.326.056l75.954-2.8h.076l72.852,2.8q1.67,0,3.325-.056C399.247,459.862,422.759,395.459,396.874,337.706Z"/><path class="b" d="M339.1,436.157l-26.973-63.4a37.121,37.121,0,0,0-6.176-9.894.61.61,0,0,1-.038-.048c-11.011-15.481-27.916-25.4-46.885-25.4-25.933,0-48.028,18.527-56.444,44.482-.006.02-.013.039-.021.058L179.8,437c-6.4,15.474-1.6,32.283,10.662,37.354l3.172,1.312c9.7,4.012,34.308-1.418,47.331-11.46a4.358,4.358,0,0,1,3.419-.813,84.206,84.206,0,0,0,13.31,1.385,90.336,90.336,0,0,0,17.209-1.406,4.087,4.087,0,0,1,3.2.73c13.1,9.951,37.867,14.981,47.555,10.859l3.159-1.344C341.025,468.422,345.651,451.565,339.1,436.157Z"/><path class="a" d="M270.767,379.675l-.3.3a15.063,15.063,0,0,1-21.3,0l-.3-.3a8.727,8.727,0,0,1,6.171-14.9H264.6A8.727,8.727,0,0,1,270.767,379.675Z"/><path class="c" d="M259.7,384.689s-1.291,21.712-13.433,30.3"/><path class="c" d="M259.921,384.689s1.291,21.712,13.433,30.3"/><circle class="d" cx="372.086" cy="343.979" r="47.045"/><circle class="a" cx="372.775" cy="343.605" r="30.519"/><circle class="e" cx="353.122" cy="321.534" r="11.12"/><circle class="d" cx="145.046" cy="343.979" r="47.045"/><circle class="a" cx="144.558" cy="343.605" r="30.519"/><circle class="e" cx="124.905" cy="321.534" r="11.12"/><path class="a" d="M150.848,257.462l84.873-50.52L145.007,34.864c-16.869-22.885-50.888-11.882-51.02,16.547-.146,31.376-8.414,95.692-7.558,127.216C88.907,269.935,125.17,253.417,150.848,257.462Z"/><path class="e" d="M153.58,224.818a52.048,52.048,0,0,1,45.679-29.469l-46.3-87.823c-6.11-8.289-16.629-7.867-22.245-1.737-3.245,3.542-3.643,8.053-3.794,10.182-2.279,32.178-2.388,53.451-2.539,61.9-.1,5.827-.636,28.232,6.512,38.695a19.615,19.615,0,0,0,3.675,4.026C141.223,226.009,149.9,225.337,153.58,224.818Z"/><path class="a" d="M365.016,284.585,260.64,206.748c22.509-63.154,38.206-78.921,48.985-79.236,13.438-.392,20.057,23.207,40.265,20.5,6.573-.879,12.387-4.248,25.515-4.752a71.371,71.371,0,0,1,14.784.8c3.6.606,20.257,3.418,28.92,13.435,18.5,21.4-5.942,56.575-14.875,68.257C391.487,242.427,370.231,277.35,365.016,284.585Z"/><path class="f" d="M313.449,159.446c-10.094,45.632,4.367,91.069,22.049,104.139,7.6,5.62,21.865,13.459,33.061,10.58,11.571-2.976,25.127-26.118,25.127-26.118"/></svg>