<?xml version="1.0" standalone="no"?>
<!DOCTYPE svg PUBLIC "-//W3C//DTD SVG 20010904//EN"
 "http://www.w3.org/TR/2001/REC-SVG-20010904/DTD/svg10.dtd">
<svg version="1.0" xmlns="http://www.w3.org/2000/svg"
 width="640.000000pt" height="640.000000pt" viewBox="0 0 640.000000 640.000000"
 preserveAspectRatio="xMidYMid meet">
<metadata>
Created by potrace 1.11, written by Peter Selinger 2001-2013
</metadata>
<g transform="translate(0.000000,640.000000) scale(0.100000,-0.100000)"
fill="#000000" stroke="none">
<path d="M1450 6106 c-84 -20 -105 -31 -164 -88 -86 -83 -101 -133 -115 -393
-11 -211 -22 -354 -63 -865 -31 -377 -30 -725 1 -930 27 -179 43 -240 86 -338
63 -144 172 -246 297 -277 29 -7 105 -16 168 -20 63 -3 116 -7 117 -9 8 -8
-79 -294 -124 -407 l-34 -86 -82 -38 c-143 -67 -276 -222 -319 -373 -56 -198
-19 -403 102 -567 29 -39 36 -57 33 -81 -3 -17 0 -78 6 -135 28 -279 119 -481
290 -641 129 -121 273 -188 476 -222 68 -12 69 -13 92 -57 33 -62 89 -115 153
-147 51 -25 64 -27 175 -26 76 1 143 7 182 18 79 21 215 79 274 117 l46 29 95
-12 c73 -9 120 -9 202 0 l106 12 53 -34 c61 -38 190 -90 279 -111 35 -8 111
-15 170 -15 104 0 109 1 179 38 54 27 83 50 111 87 20 27 38 58 40 69 2 16 24
24 118 47 129 32 271 96 341 156 219 185 334 423 346 716 l6 129 39 45 c44 51
110 176 128 242 6 23 11 97 11 164 0 96 -5 135 -20 180 -64 185 -192 322 -364
393 l-82 33 -37 118 c-20 65 -37 126 -37 136 -1 23 -11 22 -62 -8 -91 -51
-198 -41 -358 36 -157 74 -258 181 -335 354 -54 121 -110 329 -126 474 -22
186 4 563 42 608 6 7 18 13 28 13 34 0 39 -21 23 -100 -21 -100 -23 -512 -4
-619 22 -120 88 -319 136 -406 59 -109 139 -189 242 -243 91 -48 204 -76 261
-66 88 15 130 60 307 324 75 113 161 236 190 273 122 159 223 377 245 525 19
132 -30 270 -119 341 -63 49 -114 73 -226 107 -79 24 -107 27 -235 28 -130 1
-155 -2 -243 -27 -204 -58 -264 -41 -443 124 -74 69 -139 109 -179 109 -35 0
-102 -37 -151 -82 -104 -96 -245 -346 -365 -650 l-34 -88 -235 0 -235 0 -215
406 c-222 419 -249 471 -387 734 -44 85 -100 191 -123 235 -39 72 -73 137
-190 360 -20 39 -58 111 -84 160 -57 110 -119 173 -203 203 -78 28 -137 34
-203 18z m398 -995 c48 -24 63 -43 99 -116 30 -62 94 -181 143 -270 15 -27 60
-113 100 -190 40 -77 89 -171 110 -210 95 -179 190 -363 190 -369 0 -3 -17 -6
-37 -6 -49 0 -179 -32 -223 -55 -111 -57 -222 -158 -275 -250 -36 -62 -40 -65
-91 -65 -103 0 -197 56 -247 148 -58 107 -70 372 -43 978 12 276 14 293 37
335 45 81 152 113 237 70z m95 -2476 c280 -73 469 -358 414 -627 -56 -275
-273 -458 -542 -458 -87 0 -178 21 -249 58 -239 125 -350 384 -276 650 48 175
206 326 393 377 69 18 189 19 260 0z m2837 0 c212 -56 381 -233 412 -432 14
-92 5 -225 -21 -294 -46 -123 -160 -247 -283 -310 -113 -58 -310 -63 -443 -12
-103 39 -230 157 -282 263 -85 171 -84 329 3 502 68 134 202 241 355 282 70
19 190 20 259 1z m-1405 -509 c117 -22 206 -69 305 -160 129 -119 158 -167
295 -491 48 -114 101 -236 178 -415 68 -158 91 -240 85 -314 -10 -115 -65
-202 -156 -243 -51 -23 -224 -23 -310 0 -81 22 -194 71 -252 109 -33 23 -56
30 -88 30 -23 -1 -47 -4 -52 -7 -15 -9 -241 -7 -293 3 -42 9 -53 7 -90 -14
-170 -96 -256 -127 -392 -143 -214 -25 -334 62 -352 255 -8 90 3 124 189 569
27 66 63 151 80 189 16 38 43 105 59 149 71 196 228 370 406 449 102 45 260
59 388 34z"/>
<path d="M1712 2473 c-30 -4 -33 -7 -27 -26 17 -51 16 -102 -3 -136 -34 -62
-123 -90 -182 -56 -14 8 -28 14 -32 15 -3 0 -14 -23 -23 -51 -27 -82 -18 -198
22 -280 42 -85 119 -158 198 -189 80 -31 196 -32 277 -3 154 57 256 214 246
378 -9 145 -96 269 -228 328 -45 20 -175 31 -248 20z"/>
<path d="M4568 2473 c-32 -5 -32 -3 -16 -54 17 -58 -2 -112 -54 -149 -46 -34
-110 -40 -144 -15 -10 8 -24 15 -30 15 -20 0 -39 -83 -38 -176 0 -80 4 -99 29
-150 55 -112 160 -193 282 -215 179 -33 367 78 422 249 59 182 -16 374 -180
462 -56 29 -72 33 -153 36 -50 1 -103 0 -118 -3z"/>
<path d="M3120 1811 c-32 -32 -45 -69 -36 -105 9 -37 53 -84 91 -98 29 -10 35
-17 35 -41 0 -90 -78 -269 -137 -314 -37 -28 -41 -44 -17 -67 23 -23 30 -21
84 30 32 30 58 67 76 110 16 35 31 64 34 64 3 0 18 -29 33 -63 31 -68 46 -89
95 -129 39 -32 45 -34 66 -12 23 22 20 30 -18 65 -63 57 -136 228 -136 317 0
23 5 31 23 36 34 8 75 43 93 78 21 41 11 90 -27 128 -30 29 -32 30 -131 30
-96 0 -100 -1 -128 -29z"/>
</g>
</svg>
